<svg id="Capa_1" enable-background="new 0 0 512 512" height="512" viewBox="0 0 512 512" width="512" xmlns="http://www.w3.org/2000/svg" xmlns:xlink="http://www.w3.org/1999/xlink"><linearGradient id="SVGID_1_" gradientUnits="userSpaceOnUse" x1="74.981" x2="437.019" y1="74.981" y2="437.019"><stop offset="0" stop-color="#ff4e51"/><stop offset="1" stop-color="#f72553"/></linearGradient><linearGradient id="SVGID_2_" gradientUnits="userSpaceOnUse" x1="131.181" x2="370.716" y1="256" y2="256"><stop offset="0" stop-color="#728192"/><stop offset="1" stop-color="#57697d"/></linearGradient><linearGradient id="SVGID_3_" gradientUnits="userSpaceOnUse" x1="167.467" x2="334.43" y1="250.168" y2="250.168"><stop offset="0" stop-color="#fff"/><stop offset="1" stop-color="#edeff3"/></linearGradient><linearGradient id="SVGID_4_" gradientUnits="userSpaceOnUse" x1="185.61" x2="316.287" y1="146.539" y2="146.539"><stop offset="0" stop-color="#dae0e7"/><stop offset="1" stop-color="#c0c8d2"/></linearGradient><linearGradient id="SVGID_5_" gradientUnits="userSpaceOnUse" x1="185.61" x2="316.287" y1="119.324" y2="119.324"><stop offset="0" stop-color="#c0c8d2"/><stop offset="1" stop-color="#a6b0bd"/></linearGradient><g><circle cx="256" cy="256" fill="url(#SVGID_1_)" r="256"/><g><path d="m316.287 101.181-65.339 36.286-65.338-36.286h-54.429v309.638h239.535v-309.638z" fill="url(#SVGID_2_)"/><path d="m316.287 137.467-65.339-11.665-65.338 11.665h-18.143v237.066h166.963v-237.066z" fill="url(#SVGID_3_)"/><path d="m298.144 119.324v36.286h-94.392v-36.286l-18.142 18.143v36.286h130.677v-36.286z" fill="url(#SVGID_4_)"/><path d="m185.61 101.181v36.286h65.338 65.339v-36.286z" fill="url(#SVGID_5_)"/><path d="m402.332 188.098-67.902 67.902-29.415-29.415-38.487 38.486 67.902 67.902 106.389-106.388z" fill="#1e8aff"/></g></g></svg>